
<svg xmlns="http://www.w3.org/2000/svg" viewBox="0 0 134 134"><defs><style>.cls-1{fill:#020202;}</style></defs><g id="Layer_2" data-name="Layer 2"><g id="Layer_1-2" data-name="Layer 1"><path class="cls-1" d="M123.1,63.5c-18.7,0-18.7,2-37.41,2a153,153,0,0,1-16-.71A149.79,149.79,0,0,0,70.5,48.3c0-18.7-2-18.7-2-37.4,0-4.57.15-8,.37-10.9H63.73c-.14,2.88-.23,6.33-.23,10.9,0,18.7,2,18.7,2,37.41a153,153,0,0,1-.71,16A149.79,149.79,0,0,0,48.3,63.5c-18.7,0-18.7,2-37.4,2-4.57,0-8-.15-10.9-.37v5.14c2.88.14,6.33.23,10.9.23,18.7,0,18.7-2,37.41-2a153,153,0,0,1,16,.71A149.79,149.79,0,0,0,63.5,85.7c0,18.7,2,18.7,2,37.4,0,4.57-.15,8-.37,10.9h5.14c.14-2.88.23-6.33.23-10.9,0-18.7-2-18.7-2-37.41a153,153,0,0,1,.71-16,149.79,149.79,0,0,0,16.49.77c18.7,0,18.7-2,37.4-2,4.57,0,8,.15,10.9.37V63.73C131.12,63.59,127.67,63.5,123.1,63.5Z"/></g></g></svg>